<mxfile host="app.diagrams.net" modified="2024-05-03T03:42:24.204Z" agent="Mozilla/5.0 (Windows NT 10.0; Win64; x64) AppleWebKit/537.36 (KHTML, like Gecko) Chrome/124.0.0.0 Safari/537.36" etag="JDbtXbpSiGi2sI2ausRV" version="24.3.1" type="device">
  <diagram id="QYJx6O6UYMYQijQjn-B9" name="Page-2">
    <mxGraphModel dx="2140" dy="1657" grid="1" gridSize="10" guides="1" tooltips="1" connect="1" arrows="1" fold="1" page="1" pageScale="1" pageWidth="850" pageHeight="1100" math="0" shadow="0">
      <root>
        <mxCell id="0" />
        <mxCell id="1" parent="0" />
        <mxCell id="sXkvkpvaLC4nvtnSclr9-1" value="Student" style="swimlane;fontStyle=2;align=center;verticalAlign=top;childLayout=stackLayout;horizontal=1;startSize=26;horizontalStack=0;resizeParent=1;resizeLast=0;collapsible=1;marginBottom=0;rounded=0;shadow=0;strokeWidth=1;fontSize=17;fillColor=#85BEFF;" parent="1" vertex="1">
          <mxGeometry x="-140" y="-850" width="160" height="170" as="geometry">
            <mxRectangle x="230" y="140" width="160" height="26" as="alternateBounds" />
          </mxGeometry>
        </mxCell>
        <mxCell id="sXkvkpvaLC4nvtnSclr9-2" value="studentId" style="text;align=left;verticalAlign=top;spacingLeft=4;spacingRight=4;overflow=hidden;rotatable=0;points=[[0,0.5],[1,0.5]];portConstraint=eastwest;fontSize=17;" parent="sXkvkpvaLC4nvtnSclr9-1" vertex="1">
          <mxGeometry y="26" width="160" height="26" as="geometry" />
        </mxCell>
        <mxCell id="sXkvkpvaLC4nvtnSclr9-3" value="studenetRollNo" style="text;align=left;verticalAlign=top;spacingLeft=4;spacingRight=4;overflow=hidden;rotatable=0;points=[[0,0.5],[1,0.5]];portConstraint=eastwest;rounded=0;shadow=0;html=0;fontSize=17;" parent="sXkvkpvaLC4nvtnSclr9-1" vertex="1">
          <mxGeometry y="52" width="160" height="28" as="geometry" />
        </mxCell>
        <mxCell id="sXkvkpvaLC4nvtnSclr9-4" value="studenetBatch" style="text;align=left;verticalAlign=top;spacingLeft=4;spacingRight=4;overflow=hidden;rotatable=0;points=[[0,0.5],[1,0.5]];portConstraint=eastwest;rounded=0;shadow=0;html=0;fontSize=17;" parent="sXkvkpvaLC4nvtnSclr9-1" vertex="1">
          <mxGeometry y="80" width="160" height="28" as="geometry" />
        </mxCell>
        <mxCell id="sXkvkpvaLC4nvtnSclr9-5" value="userId" style="text;align=left;verticalAlign=top;spacingLeft=4;spacingRight=4;overflow=hidden;rotatable=0;points=[[0,0.5],[1,0.5]];portConstraint=eastwest;fontSize=17;" parent="sXkvkpvaLC4nvtnSclr9-1" vertex="1">
          <mxGeometry y="108" width="160" height="26" as="geometry" />
        </mxCell>
        <mxCell id="sXkvkpvaLC4nvtnSclr9-6" value="isDeleted" style="text;align=left;verticalAlign=top;spacingLeft=4;spacingRight=4;overflow=hidden;rotatable=0;points=[[0,0.5],[1,0.5]];portConstraint=eastwest;fontSize=17;" parent="sXkvkpvaLC4nvtnSclr9-1" vertex="1">
          <mxGeometry y="134" width="160" height="26" as="geometry" />
        </mxCell>
        <mxCell id="sXkvkpvaLC4nvtnSclr9-7" value="Quiz" style="swimlane;fontStyle=2;align=center;verticalAlign=top;childLayout=stackLayout;horizontal=1;startSize=26;horizontalStack=0;resizeParent=1;resizeLast=0;collapsible=1;marginBottom=0;rounded=0;shadow=0;strokeWidth=1;fontSize=17;fillColor=#85BEFF;" parent="1" vertex="1">
          <mxGeometry x="190" y="-700" width="166" height="340" as="geometry">
            <mxRectangle x="230" y="140" width="160" height="26" as="alternateBounds" />
          </mxGeometry>
        </mxCell>
        <mxCell id="sXkvkpvaLC4nvtnSclr9-8" value="quizId" style="text;align=left;verticalAlign=top;spacingLeft=4;spacingRight=4;overflow=hidden;rotatable=0;points=[[0,0.5],[1,0.5]];portConstraint=eastwest;fontSize=17;" parent="sXkvkpvaLC4nvtnSclr9-7" vertex="1">
          <mxGeometry y="26" width="166" height="26" as="geometry" />
        </mxCell>
        <mxCell id="sXkvkpvaLC4nvtnSclr9-9" value="quizTitle" style="text;align=left;verticalAlign=top;spacingLeft=4;spacingRight=4;overflow=hidden;rotatable=0;points=[[0,0.5],[1,0.5]];portConstraint=eastwest;rounded=0;shadow=0;html=0;fontSize=17;" parent="sXkvkpvaLC4nvtnSclr9-7" vertex="1">
          <mxGeometry y="52" width="166" height="28" as="geometry" />
        </mxCell>
        <mxCell id="sXkvkpvaLC4nvtnSclr9-10" value="quizTime" style="text;align=left;verticalAlign=top;spacingLeft=4;spacingRight=4;overflow=hidden;rotatable=0;points=[[0,0.5],[1,0.5]];portConstraint=eastwest;rounded=0;shadow=0;html=0;fontSize=17;" parent="sXkvkpvaLC4nvtnSclr9-7" vertex="1">
          <mxGeometry y="80" width="166" height="28" as="geometry" />
        </mxCell>
        <mxCell id="sXkvkpvaLC4nvtnSclr9-11" value="quizPlannedDate" style="text;align=left;verticalAlign=top;spacingLeft=4;spacingRight=4;overflow=hidden;rotatable=0;points=[[0,0.5],[1,0.5]];portConstraint=eastwest;rounded=0;shadow=0;html=0;fontSize=17;" parent="sXkvkpvaLC4nvtnSclr9-7" vertex="1">
          <mxGeometry y="108" width="166" height="28" as="geometry" />
        </mxCell>
        <mxCell id="sXkvkpvaLC4nvtnSclr9-12" value="quizStatus" style="text;align=left;verticalAlign=top;spacingLeft=4;spacingRight=4;overflow=hidden;rotatable=0;points=[[0,0.5],[1,0.5]];portConstraint=eastwest;rounded=0;shadow=0;html=0;fontSize=17;" parent="sXkvkpvaLC4nvtnSclr9-7" vertex="1">
          <mxGeometry y="136" width="166" height="28" as="geometry" />
        </mxCell>
        <mxCell id="sXkvkpvaLC4nvtnSclr9-13" value="quizMark" style="text;align=left;verticalAlign=top;spacingLeft=4;spacingRight=4;overflow=hidden;rotatable=0;points=[[0,0.5],[1,0.5]];portConstraint=eastwest;fontSize=17;" parent="sXkvkpvaLC4nvtnSclr9-7" vertex="1">
          <mxGeometry y="164" width="166" height="26" as="geometry" />
        </mxCell>
        <mxCell id="sXkvkpvaLC4nvtnSclr9-14" value="teacherId" style="text;align=left;verticalAlign=top;spacingLeft=4;spacingRight=4;overflow=hidden;rotatable=0;points=[[0,0.5],[1,0.5]];portConstraint=eastwest;rounded=0;shadow=0;html=0;fontSize=17;" parent="sXkvkpvaLC4nvtnSclr9-7" vertex="1">
          <mxGeometry y="190" width="166" height="30" as="geometry" />
        </mxCell>
        <mxCell id="sXkvkpvaLC4nvtnSclr9-15" value="quizTime" style="text;align=left;verticalAlign=top;spacingLeft=4;spacingRight=4;overflow=hidden;rotatable=0;points=[[0,0.5],[1,0.5]];portConstraint=eastwest;fontSize=17;" parent="sXkvkpvaLC4nvtnSclr9-7" vertex="1">
          <mxGeometry y="220" width="166" height="26" as="geometry" />
        </mxCell>
        <mxCell id="sXkvkpvaLC4nvtnSclr9-16" value="quizCreatedTime" style="text;align=left;verticalAlign=top;spacingLeft=4;spacingRight=4;overflow=hidden;rotatable=0;points=[[0,0.5],[1,0.5]];portConstraint=eastwest;fontSize=17;" parent="sXkvkpvaLC4nvtnSclr9-7" vertex="1">
          <mxGeometry y="246" width="166" height="26" as="geometry" />
        </mxCell>
        <mxCell id="sXkvkpvaLC4nvtnSclr9-17" value="categoryId" style="text;align=left;verticalAlign=top;spacingLeft=4;spacingRight=4;overflow=hidden;rotatable=0;points=[[0,0.5],[1,0.5]];portConstraint=eastwest;fontSize=17;" parent="sXkvkpvaLC4nvtnSclr9-7" vertex="1">
          <mxGeometry y="272" width="166" height="26" as="geometry" />
        </mxCell>
        <mxCell id="sXkvkpvaLC4nvtnSclr9-18" value="isDeleted" style="text;align=left;verticalAlign=top;spacingLeft=4;spacingRight=4;overflow=hidden;rotatable=0;points=[[0,0.5],[1,0.5]];portConstraint=eastwest;fontSize=17;" parent="sXkvkpvaLC4nvtnSclr9-7" vertex="1">
          <mxGeometry y="298" width="166" height="26" as="geometry" />
        </mxCell>
        <mxCell id="sXkvkpvaLC4nvtnSclr9-19" value="Question" style="swimlane;fontStyle=2;align=center;verticalAlign=top;childLayout=stackLayout;horizontal=1;startSize=26;horizontalStack=0;resizeParent=1;resizeLast=0;collapsible=1;marginBottom=0;rounded=0;shadow=0;strokeWidth=1;fontSize=17;fillColor=#85BEFF;" parent="1" vertex="1">
          <mxGeometry x="490" y="-560" width="190" height="370" as="geometry">
            <mxRectangle x="230" y="140" width="160" height="26" as="alternateBounds" />
          </mxGeometry>
        </mxCell>
        <mxCell id="sXkvkpvaLC4nvtnSclr9-20" value="questionId" style="text;align=left;verticalAlign=top;spacingLeft=4;spacingRight=4;overflow=hidden;rotatable=0;points=[[0,0.5],[1,0.5]];portConstraint=eastwest;fontSize=17;" parent="sXkvkpvaLC4nvtnSclr9-19" vertex="1">
          <mxGeometry y="26" width="190" height="26" as="geometry" />
        </mxCell>
        <mxCell id="sXkvkpvaLC4nvtnSclr9-21" value="question" style="text;align=left;verticalAlign=top;spacingLeft=4;spacingRight=4;overflow=hidden;rotatable=0;points=[[0,0.5],[1,0.5]];portConstraint=eastwest;rounded=0;shadow=0;html=0;fontSize=17;" parent="sXkvkpvaLC4nvtnSclr9-19" vertex="1">
          <mxGeometry y="52" width="190" height="28" as="geometry" />
        </mxCell>
        <mxCell id="sXkvkpvaLC4nvtnSclr9-22" value="option_01" style="text;align=left;verticalAlign=top;spacingLeft=4;spacingRight=4;overflow=hidden;rotatable=0;points=[[0,0.5],[1,0.5]];portConstraint=eastwest;rounded=0;shadow=0;html=0;fontSize=17;" parent="sXkvkpvaLC4nvtnSclr9-19" vertex="1">
          <mxGeometry y="80" width="190" height="28" as="geometry" />
        </mxCell>
        <mxCell id="sXkvkpvaLC4nvtnSclr9-23" value="option_02" style="text;align=left;verticalAlign=top;spacingLeft=4;spacingRight=4;overflow=hidden;rotatable=0;points=[[0,0.5],[1,0.5]];portConstraint=eastwest;rounded=0;shadow=0;html=0;fontSize=17;" parent="sXkvkpvaLC4nvtnSclr9-19" vertex="1">
          <mxGeometry y="108" width="190" height="32" as="geometry" />
        </mxCell>
        <mxCell id="sXkvkpvaLC4nvtnSclr9-24" value="option_03" style="text;align=left;verticalAlign=top;spacingLeft=4;spacingRight=4;overflow=hidden;rotatable=0;points=[[0,0.5],[1,0.5]];portConstraint=eastwest;rounded=0;shadow=0;html=0;fontSize=17;" parent="sXkvkpvaLC4nvtnSclr9-19" vertex="1">
          <mxGeometry y="140" width="190" height="28" as="geometry" />
        </mxCell>
        <mxCell id="sXkvkpvaLC4nvtnSclr9-25" value="option_04" style="text;align=left;verticalAlign=top;spacingLeft=4;spacingRight=4;overflow=hidden;rotatable=0;points=[[0,0.5],[1,0.5]];portConstraint=eastwest;rounded=0;shadow=0;html=0;fontSize=17;" parent="sXkvkpvaLC4nvtnSclr9-19" vertex="1">
          <mxGeometry y="168" width="190" height="28" as="geometry" />
        </mxCell>
        <mxCell id="sXkvkpvaLC4nvtnSclr9-26" value="correctAns" style="text;align=left;verticalAlign=top;spacingLeft=4;spacingRight=4;overflow=hidden;rotatable=0;points=[[0,0.5],[1,0.5]];portConstraint=eastwest;rounded=0;shadow=0;html=0;fontSize=17;" parent="sXkvkpvaLC4nvtnSclr9-19" vertex="1">
          <mxGeometry y="196" width="190" height="28" as="geometry" />
        </mxCell>
        <mxCell id="sXkvkpvaLC4nvtnSclr9-27" value="questionMarks" style="text;align=left;verticalAlign=top;spacingLeft=4;spacingRight=4;overflow=hidden;rotatable=0;points=[[0,0.5],[1,0.5]];portConstraint=eastwest;rounded=0;shadow=0;html=0;fontSize=17;" parent="sXkvkpvaLC4nvtnSclr9-19" vertex="1">
          <mxGeometry y="224" width="190" height="28" as="geometry" />
        </mxCell>
        <mxCell id="sXkvkpvaLC4nvtnSclr9-28" value="quizMark" style="text;align=left;verticalAlign=top;spacingLeft=4;spacingRight=4;overflow=hidden;rotatable=0;points=[[0,0.5],[1,0.5]];portConstraint=eastwest;fontSize=17;" parent="sXkvkpvaLC4nvtnSclr9-19" vertex="1">
          <mxGeometry y="252" width="190" height="26" as="geometry" />
        </mxCell>
        <mxCell id="sXkvkpvaLC4nvtnSclr9-29" value="questionCreatedTime" style="text;align=left;verticalAlign=top;spacingLeft=4;spacingRight=4;overflow=hidden;rotatable=0;points=[[0,0.5],[1,0.5]];portConstraint=eastwest;fontSize=17;" parent="sXkvkpvaLC4nvtnSclr9-19" vertex="1">
          <mxGeometry y="278" width="190" height="26" as="geometry" />
        </mxCell>
        <mxCell id="sXkvkpvaLC4nvtnSclr9-30" value="quizId" style="text;align=left;verticalAlign=top;spacingLeft=4;spacingRight=4;overflow=hidden;rotatable=0;points=[[0,0.5],[1,0.5]];portConstraint=eastwest;fontSize=17;" parent="sXkvkpvaLC4nvtnSclr9-19" vertex="1">
          <mxGeometry y="304" width="190" height="26" as="geometry" />
        </mxCell>
        <mxCell id="sXkvkpvaLC4nvtnSclr9-31" value="isDeleted" style="text;align=left;verticalAlign=top;spacingLeft=4;spacingRight=4;overflow=hidden;rotatable=0;points=[[0,0.5],[1,0.5]];portConstraint=eastwest;fontSize=17;" parent="sXkvkpvaLC4nvtnSclr9-19" vertex="1">
          <mxGeometry y="330" width="190" height="26" as="geometry" />
        </mxCell>
        <mxCell id="sXkvkpvaLC4nvtnSclr9-32" value="QuizTaken" style="swimlane;fontStyle=2;align=center;verticalAlign=top;childLayout=stackLayout;horizontal=1;startSize=26;horizontalStack=0;resizeParent=1;resizeLast=0;collapsible=1;marginBottom=0;rounded=0;shadow=0;strokeWidth=1;fontSize=17;fillColor=#85BEFF;" parent="1" vertex="1">
          <mxGeometry x="140" y="-910" width="160" height="120" as="geometry">
            <mxRectangle x="230" y="140" width="160" height="26" as="alternateBounds" />
          </mxGeometry>
        </mxCell>
        <mxCell id="sXkvkpvaLC4nvtnSclr9-33" value="quizTakenId" style="text;align=left;verticalAlign=top;spacingLeft=4;spacingRight=4;overflow=hidden;rotatable=0;points=[[0,0.5],[1,0.5]];portConstraint=eastwest;fontSize=17;" parent="sXkvkpvaLC4nvtnSclr9-32" vertex="1">
          <mxGeometry y="26" width="160" height="26" as="geometry" />
        </mxCell>
        <mxCell id="sXkvkpvaLC4nvtnSclr9-34" value="studentId" style="text;align=left;verticalAlign=top;spacingLeft=4;spacingRight=4;overflow=hidden;rotatable=0;points=[[0,0.5],[1,0.5]];portConstraint=eastwest;fontSize=17;" parent="sXkvkpvaLC4nvtnSclr9-32" vertex="1">
          <mxGeometry y="52" width="160" height="26" as="geometry" />
        </mxCell>
        <mxCell id="sXkvkpvaLC4nvtnSclr9-35" value="quizId" style="text;align=left;verticalAlign=top;spacingLeft=4;spacingRight=4;overflow=hidden;rotatable=0;points=[[0,0.5],[1,0.5]];portConstraint=eastwest;fontSize=17;" parent="sXkvkpvaLC4nvtnSclr9-32" vertex="1">
          <mxGeometry y="78" width="160" height="26" as="geometry" />
        </mxCell>
        <mxCell id="sXkvkpvaLC4nvtnSclr9-36" value="Category" style="swimlane;fontStyle=2;align=center;verticalAlign=top;childLayout=stackLayout;horizontal=1;startSize=26;horizontalStack=0;resizeParent=1;resizeLast=0;collapsible=1;marginBottom=0;rounded=0;shadow=0;strokeWidth=1;fontSize=17;fillColor=#85BEFF;" parent="1" vertex="1">
          <mxGeometry x="-90" y="-310" width="160" height="140" as="geometry">
            <mxRectangle x="230" y="140" width="160" height="26" as="alternateBounds" />
          </mxGeometry>
        </mxCell>
        <mxCell id="sXkvkpvaLC4nvtnSclr9-37" value="categoryId" style="text;align=left;verticalAlign=top;spacingLeft=4;spacingRight=4;overflow=hidden;rotatable=0;points=[[0,0.5],[1,0.5]];portConstraint=eastwest;fontSize=17;" parent="sXkvkpvaLC4nvtnSclr9-36" vertex="1">
          <mxGeometry y="26" width="160" height="26" as="geometry" />
        </mxCell>
        <mxCell id="sXkvkpvaLC4nvtnSclr9-38" value="description" style="text;align=left;verticalAlign=top;spacingLeft=4;spacingRight=4;overflow=hidden;rotatable=0;points=[[0,0.5],[1,0.5]];portConstraint=eastwest;fontSize=17;" parent="sXkvkpvaLC4nvtnSclr9-36" vertex="1">
          <mxGeometry y="52" width="160" height="26" as="geometry" />
        </mxCell>
        <mxCell id="sXkvkpvaLC4nvtnSclr9-39" value="categoryTitle" style="text;align=left;verticalAlign=top;spacingLeft=4;spacingRight=4;overflow=hidden;rotatable=0;points=[[0,0.5],[1,0.5]];portConstraint=eastwest;fontSize=17;" parent="sXkvkpvaLC4nvtnSclr9-36" vertex="1">
          <mxGeometry y="78" width="160" height="26" as="geometry" />
        </mxCell>
        <mxCell id="sXkvkpvaLC4nvtnSclr9-40" value="isDeleted" style="text;align=left;verticalAlign=top;spacingLeft=4;spacingRight=4;overflow=hidden;rotatable=0;points=[[0,0.5],[1,0.5]];portConstraint=eastwest;fontSize=17;" parent="sXkvkpvaLC4nvtnSclr9-36" vertex="1">
          <mxGeometry y="104" width="160" height="26" as="geometry" />
        </mxCell>
        <mxCell id="sXkvkpvaLC4nvtnSclr9-41" value="Teacher" style="swimlane;fontStyle=2;align=center;verticalAlign=top;childLayout=stackLayout;horizontal=1;startSize=26;horizontalStack=0;resizeParent=1;resizeLast=0;collapsible=1;marginBottom=0;rounded=0;shadow=0;strokeWidth=1;fontSize=17;fillColor=#85BEFF;" parent="1" vertex="1">
          <mxGeometry x="-130" y="-570" width="160" height="200" as="geometry">
            <mxRectangle x="-130" y="-570" width="160" height="26" as="alternateBounds" />
          </mxGeometry>
        </mxCell>
        <mxCell id="sXkvkpvaLC4nvtnSclr9-42" value="teacherId" style="text;align=left;verticalAlign=top;spacingLeft=4;spacingRight=4;overflow=hidden;rotatable=0;points=[[0,0.5],[1,0.5]];portConstraint=eastwest;fontSize=17;" parent="sXkvkpvaLC4nvtnSclr9-41" vertex="1">
          <mxGeometry y="26" width="160" height="26" as="geometry" />
        </mxCell>
        <mxCell id="sXkvkpvaLC4nvtnSclr9-43" value="teacherDesignation" style="text;align=left;verticalAlign=top;spacingLeft=4;spacingRight=4;overflow=hidden;rotatable=0;points=[[0,0.5],[1,0.5]];portConstraint=eastwest;rounded=0;shadow=0;html=0;fontSize=17;" parent="sXkvkpvaLC4nvtnSclr9-41" vertex="1">
          <mxGeometry y="52" width="160" height="28" as="geometry" />
        </mxCell>
        <mxCell id="sXkvkpvaLC4nvtnSclr9-44" value="tearcherSub" style="text;align=left;verticalAlign=top;spacingLeft=4;spacingRight=4;overflow=hidden;rotatable=0;points=[[0,0.5],[1,0.5]];portConstraint=eastwest;rounded=0;shadow=0;html=0;fontSize=17;" parent="sXkvkpvaLC4nvtnSclr9-41" vertex="1">
          <mxGeometry y="80" width="160" height="28" as="geometry" />
        </mxCell>
        <mxCell id="sXkvkpvaLC4nvtnSclr9-45" value="teacherEducation" style="text;align=left;verticalAlign=top;spacingLeft=4;spacingRight=4;overflow=hidden;rotatable=0;points=[[0,0.5],[1,0.5]];portConstraint=eastwest;rounded=0;shadow=0;html=0;fontSize=17;" parent="sXkvkpvaLC4nvtnSclr9-41" vertex="1">
          <mxGeometry y="108" width="160" height="28" as="geometry" />
        </mxCell>
        <mxCell id="sXkvkpvaLC4nvtnSclr9-46" value="userId" style="text;align=left;verticalAlign=top;spacingLeft=4;spacingRight=4;overflow=hidden;rotatable=0;points=[[0,0.5],[1,0.5]];portConstraint=eastwest;fontSize=17;" parent="sXkvkpvaLC4nvtnSclr9-41" vertex="1">
          <mxGeometry y="136" width="160" height="26" as="geometry" />
        </mxCell>
        <mxCell id="sXkvkpvaLC4nvtnSclr9-47" value="isDeleted" style="text;align=left;verticalAlign=top;spacingLeft=4;spacingRight=4;overflow=hidden;rotatable=0;points=[[0,0.5],[1,0.5]];portConstraint=eastwest;fontSize=17;" parent="sXkvkpvaLC4nvtnSclr9-41" vertex="1">
          <mxGeometry y="162" width="160" height="26" as="geometry" />
        </mxCell>
        <mxCell id="sXkvkpvaLC4nvtnSclr9-48" value="Result" style="swimlane;fontStyle=2;align=center;verticalAlign=top;childLayout=stackLayout;horizontal=1;startSize=26;horizontalStack=0;resizeParent=1;resizeLast=0;collapsible=1;marginBottom=0;rounded=0;shadow=0;strokeWidth=1;fontSize=17;strokeColor=#000066;fillColor=#85BEFF;" parent="1" vertex="1">
          <mxGeometry x="130" y="-1090" width="160" height="150" as="geometry">
            <mxRectangle x="230" y="140" width="160" height="26" as="alternateBounds" />
          </mxGeometry>
        </mxCell>
        <mxCell id="sXkvkpvaLC4nvtnSclr9-49" value="resultId" style="text;align=left;verticalAlign=top;spacingLeft=4;spacingRight=4;overflow=hidden;rotatable=0;points=[[0,0.5],[1,0.5]];portConstraint=eastwest;fontSize=17;" parent="sXkvkpvaLC4nvtnSclr9-48" vertex="1">
          <mxGeometry y="26" width="160" height="26" as="geometry" />
        </mxCell>
        <mxCell id="sXkvkpvaLC4nvtnSclr9-50" value="studentId" style="text;align=left;verticalAlign=top;spacingLeft=4;spacingRight=4;overflow=hidden;rotatable=0;points=[[0,0.5],[1,0.5]];portConstraint=eastwest;rounded=0;shadow=0;html=0;fontSize=17;" parent="sXkvkpvaLC4nvtnSclr9-48" vertex="1">
          <mxGeometry y="52" width="160" height="28" as="geometry" />
        </mxCell>
        <mxCell id="sXkvkpvaLC4nvtnSclr9-51" value="quizId" style="text;align=left;verticalAlign=top;spacingLeft=4;spacingRight=4;overflow=hidden;rotatable=0;points=[[0,0.5],[1,0.5]];portConstraint=eastwest;rounded=0;shadow=0;html=0;fontSize=17;" parent="sXkvkpvaLC4nvtnSclr9-48" vertex="1">
          <mxGeometry y="80" width="160" height="28" as="geometry" />
        </mxCell>
        <mxCell id="sXkvkpvaLC4nvtnSclr9-52" value="obtainedMarks" style="text;align=left;verticalAlign=top;spacingLeft=4;spacingRight=4;overflow=hidden;rotatable=0;points=[[0,0.5],[1,0.5]];portConstraint=eastwest;rounded=0;shadow=0;html=0;fontSize=17;" parent="sXkvkpvaLC4nvtnSclr9-48" vertex="1">
          <mxGeometry y="108" width="160" height="28" as="geometry" />
        </mxCell>
        <mxCell id="sXkvkpvaLC4nvtnSclr9-53" value="User" style="swimlane;fontStyle=2;align=center;verticalAlign=top;childLayout=stackLayout;horizontal=1;startSize=26;horizontalStack=0;resizeParent=1;resizeLast=0;collapsible=1;marginBottom=0;rounded=0;shadow=0;strokeWidth=1;fontSize=17;fillColor=#85BEFF;" parent="1" vertex="1">
          <mxGeometry x="-490" y="-640" width="160" height="280" as="geometry">
            <mxRectangle x="230" y="140" width="160" height="26" as="alternateBounds" />
          </mxGeometry>
        </mxCell>
        <mxCell id="sXkvkpvaLC4nvtnSclr9-54" value="userId" style="text;align=left;verticalAlign=top;spacingLeft=4;spacingRight=4;overflow=hidden;rotatable=0;points=[[0,0.5],[1,0.5]];portConstraint=eastwest;fontSize=17;" parent="sXkvkpvaLC4nvtnSclr9-53" vertex="1">
          <mxGeometry y="26" width="160" height="26" as="geometry" />
        </mxCell>
        <mxCell id="sXkvkpvaLC4nvtnSclr9-55" value="userEmail" style="text;align=left;verticalAlign=top;spacingLeft=4;spacingRight=4;overflow=hidden;rotatable=0;points=[[0,0.5],[1,0.5]];portConstraint=eastwest;rounded=0;shadow=0;html=0;fontSize=17;" parent="sXkvkpvaLC4nvtnSclr9-53" vertex="1">
          <mxGeometry y="52" width="160" height="28" as="geometry" />
        </mxCell>
        <mxCell id="sXkvkpvaLC4nvtnSclr9-56" value="userName" style="text;align=left;verticalAlign=top;spacingLeft=4;spacingRight=4;overflow=hidden;rotatable=0;points=[[0,0.5],[1,0.5]];portConstraint=eastwest;rounded=0;shadow=0;html=0;fontSize=17;" parent="sXkvkpvaLC4nvtnSclr9-53" vertex="1">
          <mxGeometry y="80" width="160" height="28" as="geometry" />
        </mxCell>
        <mxCell id="sXkvkpvaLC4nvtnSclr9-57" value="userPhoneNo" style="text;align=left;verticalAlign=top;spacingLeft=4;spacingRight=4;overflow=hidden;rotatable=0;points=[[0,0.5],[1,0.5]];portConstraint=eastwest;fontSize=17;" parent="sXkvkpvaLC4nvtnSclr9-53" vertex="1">
          <mxGeometry y="108" width="160" height="26" as="geometry" />
        </mxCell>
        <mxCell id="sXkvkpvaLC4nvtnSclr9-58" value="userPassword" style="text;align=left;verticalAlign=top;spacingLeft=4;spacingRight=4;overflow=hidden;rotatable=0;points=[[0,0.5],[1,0.5]];portConstraint=eastwest;rounded=0;shadow=0;html=0;fontSize=17;" parent="sXkvkpvaLC4nvtnSclr9-53" vertex="1">
          <mxGeometry y="134" width="160" height="28" as="geometry" />
        </mxCell>
        <mxCell id="sXkvkpvaLC4nvtnSclr9-59" value="userGender" style="text;align=left;verticalAlign=top;spacingLeft=4;spacingRight=4;overflow=hidden;rotatable=0;points=[[0,0.5],[1,0.5]];portConstraint=eastwest;fontSize=17;" parent="sXkvkpvaLC4nvtnSclr9-53" vertex="1">
          <mxGeometry y="162" width="160" height="26" as="geometry" />
        </mxCell>
        <mxCell id="sXkvkpvaLC4nvtnSclr9-60" value="userDOB" style="text;align=left;verticalAlign=top;spacingLeft=4;spacingRight=4;overflow=hidden;rotatable=0;points=[[0,0.5],[1,0.5]];portConstraint=eastwest;fontSize=17;" parent="sXkvkpvaLC4nvtnSclr9-53" vertex="1">
          <mxGeometry y="188" width="160" height="26" as="geometry" />
        </mxCell>
        <mxCell id="sXkvkpvaLC4nvtnSclr9-61" value="roleId" style="text;align=left;verticalAlign=top;spacingLeft=4;spacingRight=4;overflow=hidden;rotatable=0;points=[[0,0.5],[1,0.5]];portConstraint=eastwest;fontSize=17;" parent="sXkvkpvaLC4nvtnSclr9-53" vertex="1">
          <mxGeometry y="214" width="160" height="26" as="geometry" />
        </mxCell>
        <mxCell id="sXkvkpvaLC4nvtnSclr9-62" value="isDeleted" style="text;align=left;verticalAlign=top;spacingLeft=4;spacingRight=4;overflow=hidden;rotatable=0;points=[[0,0.5],[1,0.5]];portConstraint=eastwest;fontSize=17;" parent="sXkvkpvaLC4nvtnSclr9-53" vertex="1">
          <mxGeometry y="240" width="160" height="26" as="geometry" />
        </mxCell>
        <mxCell id="sXkvkpvaLC4nvtnSclr9-63" value="Role" style="swimlane;fontStyle=2;align=center;verticalAlign=top;childLayout=stackLayout;horizontal=1;startSize=26;horizontalStack=0;resizeParent=1;resizeLast=0;collapsible=1;marginBottom=0;rounded=0;shadow=0;strokeWidth=1;fontSize=17;fillColor=#85BEFF;" parent="1" vertex="1">
          <mxGeometry x="-790" y="-510" width="160" height="150" as="geometry">
            <mxRectangle x="230" y="140" width="160" height="26" as="alternateBounds" />
          </mxGeometry>
        </mxCell>
        <mxCell id="sXkvkpvaLC4nvtnSclr9-64" value="roleId" style="text;align=left;verticalAlign=top;spacingLeft=4;spacingRight=4;overflow=hidden;rotatable=0;points=[[0,0.5],[1,0.5]];portConstraint=eastwest;fontSize=17;" parent="sXkvkpvaLC4nvtnSclr9-63" vertex="1">
          <mxGeometry y="26" width="160" height="26" as="geometry" />
        </mxCell>
        <mxCell id="sXkvkpvaLC4nvtnSclr9-65" value="Admin" style="text;align=left;verticalAlign=top;spacingLeft=4;spacingRight=4;overflow=hidden;rotatable=0;points=[[0,0.5],[1,0.5]];portConstraint=eastwest;fontSize=17;" parent="sXkvkpvaLC4nvtnSclr9-63" vertex="1">
          <mxGeometry y="52" width="160" height="26" as="geometry" />
        </mxCell>
        <mxCell id="sXkvkpvaLC4nvtnSclr9-66" value="Teacher" style="text;align=left;verticalAlign=top;spacingLeft=4;spacingRight=4;overflow=hidden;rotatable=0;points=[[0,0.5],[1,0.5]];portConstraint=eastwest;fontSize=17;" parent="sXkvkpvaLC4nvtnSclr9-63" vertex="1">
          <mxGeometry y="78" width="160" height="26" as="geometry" />
        </mxCell>
        <mxCell id="sXkvkpvaLC4nvtnSclr9-67" value="Student" style="text;align=left;verticalAlign=top;spacingLeft=4;spacingRight=4;overflow=hidden;rotatable=0;points=[[0,0.5],[1,0.5]];portConstraint=eastwest;fontSize=17;" parent="sXkvkpvaLC4nvtnSclr9-63" vertex="1">
          <mxGeometry y="104" width="160" height="26" as="geometry" />
        </mxCell>
        <mxCell id="sXkvkpvaLC4nvtnSclr9-68" value="Event" style="swimlane;fontStyle=2;align=center;verticalAlign=top;childLayout=stackLayout;horizontal=1;startSize=26;horizontalStack=0;resizeParent=1;resizeLast=0;collapsible=1;marginBottom=0;rounded=0;shadow=0;strokeWidth=1;fontSize=17;fillColor=#85BEFF;" parent="1" vertex="1">
          <mxGeometry x="-490" y="-310" width="160" height="170" as="geometry">
            <mxRectangle x="230" y="140" width="160" height="26" as="alternateBounds" />
          </mxGeometry>
        </mxCell>
        <mxCell id="sXkvkpvaLC4nvtnSclr9-69" value="eventId" style="text;align=left;verticalAlign=top;spacingLeft=4;spacingRight=4;overflow=hidden;rotatable=0;points=[[0,0.5],[1,0.5]];portConstraint=eastwest;fontSize=17;" parent="sXkvkpvaLC4nvtnSclr9-68" vertex="1">
          <mxGeometry y="26" width="160" height="26" as="geometry" />
        </mxCell>
        <mxCell id="sXkvkpvaLC4nvtnSclr9-70" value="eventTitle" style="text;align=left;verticalAlign=top;spacingLeft=4;spacingRight=4;overflow=hidden;rotatable=0;points=[[0,0.5],[1,0.5]];portConstraint=eastwest;fontSize=17;" parent="sXkvkpvaLC4nvtnSclr9-68" vertex="1">
          <mxGeometry y="52" width="160" height="26" as="geometry" />
        </mxCell>
        <mxCell id="sXkvkpvaLC4nvtnSclr9-71" value="eventDesc" style="text;align=left;verticalAlign=top;spacingLeft=4;spacingRight=4;overflow=hidden;rotatable=0;points=[[0,0.5],[1,0.5]];portConstraint=eastwest;fontSize=17;" parent="sXkvkpvaLC4nvtnSclr9-68" vertex="1">
          <mxGeometry y="78" width="160" height="26" as="geometry" />
        </mxCell>
        <mxCell id="sXkvkpvaLC4nvtnSclr9-72" value="eventFrom" style="text;align=left;verticalAlign=top;spacingLeft=4;spacingRight=4;overflow=hidden;rotatable=0;points=[[0,0.5],[1,0.5]];portConstraint=eastwest;fontSize=17;" parent="sXkvkpvaLC4nvtnSclr9-68" vertex="1">
          <mxGeometry y="104" width="160" height="26" as="geometry" />
        </mxCell>
        <mxCell id="sXkvkpvaLC4nvtnSclr9-73" value="eventTo" style="text;align=left;verticalAlign=top;spacingLeft=4;spacingRight=4;overflow=hidden;rotatable=0;points=[[0,0.5],[1,0.5]];portConstraint=eastwest;fontSize=17;" parent="sXkvkpvaLC4nvtnSclr9-68" vertex="1">
          <mxGeometry y="130" width="160" height="26" as="geometry" />
        </mxCell>
        <mxCell id="sXkvkpvaLC4nvtnSclr9-74" value="Announcement" style="swimlane;fontStyle=2;align=center;verticalAlign=top;childLayout=stackLayout;horizontal=1;startSize=26;horizontalStack=0;resizeParent=1;resizeLast=0;collapsible=1;marginBottom=0;rounded=0;shadow=0;strokeWidth=1;fontSize=17;fillColor=#85BEFF;" parent="1" vertex="1">
          <mxGeometry x="150" y="-220" width="160" height="104" as="geometry">
            <mxRectangle x="230" y="140" width="160" height="26" as="alternateBounds" />
          </mxGeometry>
        </mxCell>
        <mxCell id="sXkvkpvaLC4nvtnSclr9-75" value="annuId" style="text;align=left;verticalAlign=top;spacingLeft=4;spacingRight=4;overflow=hidden;rotatable=0;points=[[0,0.5],[1,0.5]];portConstraint=eastwest;fontSize=17;" parent="sXkvkpvaLC4nvtnSclr9-74" vertex="1">
          <mxGeometry y="26" width="160" height="26" as="geometry" />
        </mxCell>
        <mxCell id="sXkvkpvaLC4nvtnSclr9-76" value="annuDesc" style="text;align=left;verticalAlign=top;spacingLeft=4;spacingRight=4;overflow=hidden;rotatable=0;points=[[0,0.5],[1,0.5]];portConstraint=eastwest;fontSize=17;" parent="sXkvkpvaLC4nvtnSclr9-74" vertex="1">
          <mxGeometry y="52" width="160" height="26" as="geometry" />
        </mxCell>
        <mxCell id="sXkvkpvaLC4nvtnSclr9-77" value="createdDate" style="text;align=left;verticalAlign=top;spacingLeft=4;spacingRight=4;overflow=hidden;rotatable=0;points=[[0,0.5],[1,0.5]];portConstraint=eastwest;fontSize=17;" parent="sXkvkpvaLC4nvtnSclr9-74" vertex="1">
          <mxGeometry y="78" width="160" height="26" as="geometry" />
        </mxCell>
        <mxCell id="sXkvkpvaLC4nvtnSclr9-78" value="Holiday" style="swimlane;fontStyle=2;align=center;verticalAlign=top;childLayout=stackLayout;horizontal=1;startSize=26;horizontalStack=0;resizeParent=1;resizeLast=0;collapsible=1;marginBottom=0;rounded=0;shadow=0;strokeWidth=1;fontSize=17;fillColor=#85BEFF;" parent="1" vertex="1">
          <mxGeometry x="-290" y="-310" width="160" height="140" as="geometry">
            <mxRectangle x="230" y="140" width="160" height="26" as="alternateBounds" />
          </mxGeometry>
        </mxCell>
        <mxCell id="sXkvkpvaLC4nvtnSclr9-79" value="holidayId" style="text;align=left;verticalAlign=top;spacingLeft=4;spacingRight=4;overflow=hidden;rotatable=0;points=[[0,0.5],[1,0.5]];portConstraint=eastwest;fontSize=17;" parent="sXkvkpvaLC4nvtnSclr9-78" vertex="1">
          <mxGeometry y="26" width="160" height="26" as="geometry" />
        </mxCell>
        <mxCell id="sXkvkpvaLC4nvtnSclr9-80" value="holidayTitile" style="text;align=left;verticalAlign=top;spacingLeft=4;spacingRight=4;overflow=hidden;rotatable=0;points=[[0,0.5],[1,0.5]];portConstraint=eastwest;fontSize=17;" parent="sXkvkpvaLC4nvtnSclr9-78" vertex="1">
          <mxGeometry y="52" width="160" height="26" as="geometry" />
        </mxCell>
        <mxCell id="sXkvkpvaLC4nvtnSclr9-81" value="holidayFrom" style="text;align=left;verticalAlign=top;spacingLeft=4;spacingRight=4;overflow=hidden;rotatable=0;points=[[0,0.5],[1,0.5]];portConstraint=eastwest;fontSize=17;" parent="sXkvkpvaLC4nvtnSclr9-78" vertex="1">
          <mxGeometry y="78" width="160" height="26" as="geometry" />
        </mxCell>
        <mxCell id="sXkvkpvaLC4nvtnSclr9-82" value="holidayTo" style="text;align=left;verticalAlign=top;spacingLeft=4;spacingRight=4;overflow=hidden;rotatable=0;points=[[0,0.5],[1,0.5]];portConstraint=eastwest;fontSize=17;" parent="sXkvkpvaLC4nvtnSclr9-78" vertex="1">
          <mxGeometry y="104" width="160" height="26" as="geometry" />
        </mxCell>
        <mxCell id="sXkvkpvaLC4nvtnSclr9-83" style="edgeStyle=orthogonalEdgeStyle;rounded=0;orthogonalLoop=1;jettySize=auto;html=1;entryX=0;entryY=0.5;entryDx=0;entryDy=0;" parent="1" source="sXkvkpvaLC4nvtnSclr9-54" target="sXkvkpvaLC4nvtnSclr9-46" edge="1">
          <mxGeometry relative="1" as="geometry" />
        </mxCell>
        <mxCell id="sXkvkpvaLC4nvtnSclr9-84" style="edgeStyle=orthogonalEdgeStyle;rounded=0;orthogonalLoop=1;jettySize=auto;html=1;entryX=0;entryY=0.5;entryDx=0;entryDy=0;" parent="1" source="sXkvkpvaLC4nvtnSclr9-54" target="sXkvkpvaLC4nvtnSclr9-5" edge="1">
          <mxGeometry relative="1" as="geometry" />
        </mxCell>
        <mxCell id="sXkvkpvaLC4nvtnSclr9-85" value="&lt;font style=&quot;font-size: 18px;&quot;&gt;1&lt;/font&gt;" style="text;html=1;align=center;verticalAlign=middle;whiteSpace=wrap;rounded=0;" parent="1" vertex="1">
          <mxGeometry x="-330" y="-630" width="60" height="30" as="geometry" />
        </mxCell>
        <mxCell id="sXkvkpvaLC4nvtnSclr9-86" value="&lt;span style=&quot;font-size: 18px;&quot;&gt;1&lt;/span&gt;" style="text;html=1;align=center;verticalAlign=middle;whiteSpace=wrap;rounded=0;" parent="1" vertex="1">
          <mxGeometry x="-200" y="-760" width="60" height="30" as="geometry" />
        </mxCell>
        <mxCell id="sXkvkpvaLC4nvtnSclr9-87" value="&lt;span style=&quot;font-size: 18px;&quot;&gt;1&lt;/span&gt;" style="text;html=1;align=center;verticalAlign=middle;whiteSpace=wrap;rounded=0;" parent="1" vertex="1">
          <mxGeometry x="-200" y="-420" width="60" height="30" as="geometry" />
        </mxCell>
        <mxCell id="sXkvkpvaLC4nvtnSclr9-88" style="edgeStyle=orthogonalEdgeStyle;rounded=0;orthogonalLoop=1;jettySize=auto;html=1;entryX=0;entryY=0.5;entryDx=0;entryDy=0;" parent="1" source="sXkvkpvaLC4nvtnSclr9-42" target="sXkvkpvaLC4nvtnSclr9-14" edge="1">
          <mxGeometry relative="1" as="geometry" />
        </mxCell>
        <mxCell id="sXkvkpvaLC4nvtnSclr9-89" value="&lt;span style=&quot;font-size: 18px;&quot;&gt;1&lt;/span&gt;" style="text;html=1;align=center;verticalAlign=middle;whiteSpace=wrap;rounded=0;" parent="1" vertex="1">
          <mxGeometry x="30" y="-560" width="60" height="30" as="geometry" />
        </mxCell>
        <mxCell id="sXkvkpvaLC4nvtnSclr9-90" value="&lt;span style=&quot;font-size: 18px;&quot;&gt;M&lt;/span&gt;" style="text;html=1;align=center;verticalAlign=middle;whiteSpace=wrap;rounded=0;" parent="1" vertex="1">
          <mxGeometry x="130" y="-490" width="60" height="30" as="geometry" />
        </mxCell>
        <mxCell id="sXkvkpvaLC4nvtnSclr9-91" style="edgeStyle=orthogonalEdgeStyle;rounded=0;orthogonalLoop=1;jettySize=auto;html=1;entryX=0;entryY=0.5;entryDx=0;entryDy=0;" parent="1" source="sXkvkpvaLC4nvtnSclr9-2" target="sXkvkpvaLC4nvtnSclr9-34" edge="1">
          <mxGeometry relative="1" as="geometry" />
        </mxCell>
        <mxCell id="sXkvkpvaLC4nvtnSclr9-92" style="edgeStyle=orthogonalEdgeStyle;rounded=0;orthogonalLoop=1;jettySize=auto;html=1;entryX=1;entryY=0.5;entryDx=0;entryDy=0;" parent="1" source="sXkvkpvaLC4nvtnSclr9-8" target="sXkvkpvaLC4nvtnSclr9-35" edge="1">
          <mxGeometry relative="1" as="geometry">
            <Array as="points">
              <mxPoint x="410" y="-661" />
              <mxPoint x="410" y="-819" />
            </Array>
          </mxGeometry>
        </mxCell>
        <mxCell id="sXkvkpvaLC4nvtnSclr9-93" value="&lt;span style=&quot;font-size: 18px;&quot;&gt;1&lt;/span&gt;" style="text;html=1;align=center;verticalAlign=middle;whiteSpace=wrap;rounded=0;" parent="1" vertex="1">
          <mxGeometry x="10" y="-810" width="60" height="30" as="geometry" />
        </mxCell>
        <mxCell id="sXkvkpvaLC4nvtnSclr9-94" value="&lt;span style=&quot;font-size: 18px;&quot;&gt;M&lt;/span&gt;" style="text;html=1;align=center;verticalAlign=middle;whiteSpace=wrap;rounded=0;" parent="1" vertex="1">
          <mxGeometry x="90" y="-870" width="60" height="30" as="geometry" />
        </mxCell>
        <mxCell id="sXkvkpvaLC4nvtnSclr9-95" value="&lt;span style=&quot;font-size: 18px;&quot;&gt;M&lt;/span&gt;" style="text;html=1;align=center;verticalAlign=middle;whiteSpace=wrap;rounded=0;" parent="1" vertex="1">
          <mxGeometry x="280" y="-850" width="60" height="30" as="geometry" />
        </mxCell>
        <mxCell id="sXkvkpvaLC4nvtnSclr9-96" value="&lt;span style=&quot;font-size: 18px;&quot;&gt;1&lt;/span&gt;" style="text;html=1;align=center;verticalAlign=middle;whiteSpace=wrap;rounded=0;" parent="1" vertex="1">
          <mxGeometry x="340" y="-660" width="60" height="30" as="geometry" />
        </mxCell>
        <mxCell id="sXkvkpvaLC4nvtnSclr9-97" style="edgeStyle=orthogonalEdgeStyle;rounded=0;orthogonalLoop=1;jettySize=auto;html=1;entryX=0;entryY=0.5;entryDx=0;entryDy=0;" parent="1" source="sXkvkpvaLC4nvtnSclr9-64" target="sXkvkpvaLC4nvtnSclr9-61" edge="1">
          <mxGeometry relative="1" as="geometry" />
        </mxCell>
        <mxCell id="sXkvkpvaLC4nvtnSclr9-98" value="&lt;font style=&quot;font-size: 18px;&quot;&gt;1&lt;/font&gt;" style="text;html=1;align=center;verticalAlign=middle;whiteSpace=wrap;rounded=0;" parent="1" vertex="1">
          <mxGeometry x="-640" y="-470" width="60" height="30" as="geometry" />
        </mxCell>
        <mxCell id="sXkvkpvaLC4nvtnSclr9-99" value="&lt;span style=&quot;font-size: 18px;&quot;&gt;M&lt;/span&gt;" style="text;html=1;align=center;verticalAlign=middle;whiteSpace=wrap;rounded=0;" parent="1" vertex="1">
          <mxGeometry x="-550" y="-420" width="60" height="30" as="geometry" />
        </mxCell>
        <mxCell id="sXkvkpvaLC4nvtnSclr9-100" value="&lt;span style=&quot;font-size: 18px;&quot;&gt;1&lt;/span&gt;" style="text;html=1;align=center;verticalAlign=middle;whiteSpace=wrap;rounded=0;" parent="1" vertex="1">
          <mxGeometry x="-190" y="-850" width="60" height="30" as="geometry" />
        </mxCell>
        <mxCell id="sXkvkpvaLC4nvtnSclr9-101" value="&lt;span style=&quot;font-size: 18px;&quot;&gt;M&lt;/span&gt;" style="text;html=1;align=center;verticalAlign=middle;whiteSpace=wrap;rounded=0;" parent="1" vertex="1">
          <mxGeometry x="70" y="-1080" width="60" height="30" as="geometry" />
        </mxCell>
        <mxCell id="sXkvkpvaLC4nvtnSclr9-102" value="&lt;span style=&quot;font-size: 18px;&quot;&gt;M&lt;/span&gt;" style="text;html=1;align=center;verticalAlign=middle;whiteSpace=wrap;rounded=0;" parent="1" vertex="1">
          <mxGeometry x="290" y="-1060" width="60" height="30" as="geometry" />
        </mxCell>
        <mxCell id="sXkvkpvaLC4nvtnSclr9-103" style="edgeStyle=orthogonalEdgeStyle;rounded=0;orthogonalLoop=1;jettySize=auto;html=1;entryX=-0.051;entryY=0.529;entryDx=0;entryDy=0;entryPerimeter=0;" parent="1" source="sXkvkpvaLC4nvtnSclr9-2" target="sXkvkpvaLC4nvtnSclr9-50" edge="1">
          <mxGeometry relative="1" as="geometry">
            <Array as="points">
              <mxPoint x="-180" y="-811" />
              <mxPoint x="-180" y="-1023" />
            </Array>
          </mxGeometry>
        </mxCell>
        <mxCell id="sXkvkpvaLC4nvtnSclr9-104" style="edgeStyle=orthogonalEdgeStyle;rounded=0;orthogonalLoop=1;jettySize=auto;html=1;entryX=1;entryY=0.5;entryDx=0;entryDy=0;" parent="1" source="sXkvkpvaLC4nvtnSclr9-8" target="sXkvkpvaLC4nvtnSclr9-51" edge="1">
          <mxGeometry relative="1" as="geometry">
            <Array as="points">
              <mxPoint x="460" y="-661" />
              <mxPoint x="460" y="-996" />
            </Array>
          </mxGeometry>
        </mxCell>
        <mxCell id="sXkvkpvaLC4nvtnSclr9-105" style="edgeStyle=orthogonalEdgeStyle;rounded=0;orthogonalLoop=1;jettySize=auto;html=1;entryX=0;entryY=0.5;entryDx=0;entryDy=0;" parent="1" source="sXkvkpvaLC4nvtnSclr9-37" target="sXkvkpvaLC4nvtnSclr9-17" edge="1">
          <mxGeometry relative="1" as="geometry" />
        </mxCell>
        <mxCell id="sXkvkpvaLC4nvtnSclr9-106" value="&lt;span style=&quot;font-size: 18px;&quot;&gt;1&lt;/span&gt;" style="text;html=1;align=center;verticalAlign=middle;whiteSpace=wrap;rounded=0;" parent="1" vertex="1">
          <mxGeometry x="50" y="-270" width="60" height="30" as="geometry" />
        </mxCell>
        <mxCell id="sXkvkpvaLC4nvtnSclr9-107" value="&lt;span style=&quot;font-size: 18px;&quot;&gt;M&lt;/span&gt;" style="text;html=1;align=center;verticalAlign=middle;whiteSpace=wrap;rounded=0;" parent="1" vertex="1">
          <mxGeometry x="140" y="-420" width="60" height="30" as="geometry" />
        </mxCell>
        <mxCell id="sXkvkpvaLC4nvtnSclr9-108" value="QuizQuestion" style="swimlane;fontStyle=2;align=center;verticalAlign=top;childLayout=stackLayout;horizontal=1;startSize=26;horizontalStack=0;resizeParent=1;resizeLast=0;collapsible=1;marginBottom=0;rounded=0;shadow=0;strokeWidth=1;fontSize=17;fillColor=#85BEFF;" parent="1" vertex="1">
          <mxGeometry x="610" y="-990" width="160" height="120" as="geometry">
            <mxRectangle x="230" y="140" width="160" height="26" as="alternateBounds" />
          </mxGeometry>
        </mxCell>
        <mxCell id="sXkvkpvaLC4nvtnSclr9-109" value="id" style="text;align=left;verticalAlign=top;spacingLeft=4;spacingRight=4;overflow=hidden;rotatable=0;points=[[0,0.5],[1,0.5]];portConstraint=eastwest;fontSize=17;" parent="sXkvkpvaLC4nvtnSclr9-108" vertex="1">
          <mxGeometry y="26" width="160" height="26" as="geometry" />
        </mxCell>
        <mxCell id="sXkvkpvaLC4nvtnSclr9-110" value="quizId" style="text;align=left;verticalAlign=top;spacingLeft=4;spacingRight=4;overflow=hidden;rotatable=0;points=[[0,0.5],[1,0.5]];portConstraint=eastwest;rounded=0;shadow=0;html=0;fontSize=17;" parent="sXkvkpvaLC4nvtnSclr9-108" vertex="1">
          <mxGeometry y="52" width="160" height="28" as="geometry" />
        </mxCell>
        <mxCell id="sXkvkpvaLC4nvtnSclr9-111" value="questionId" style="text;align=left;verticalAlign=top;spacingLeft=4;spacingRight=4;overflow=hidden;rotatable=0;points=[[0,0.5],[1,0.5]];portConstraint=eastwest;rounded=0;shadow=0;html=0;fontSize=17;" parent="sXkvkpvaLC4nvtnSclr9-108" vertex="1">
          <mxGeometry y="80" width="160" height="28" as="geometry" />
        </mxCell>
        <mxCell id="sXkvkpvaLC4nvtnSclr9-112" style="edgeStyle=orthogonalEdgeStyle;rounded=0;orthogonalLoop=1;jettySize=auto;html=1;entryX=0;entryY=0.5;entryDx=0;entryDy=0;" parent="1" source="sXkvkpvaLC4nvtnSclr9-8" target="sXkvkpvaLC4nvtnSclr9-110" edge="1">
          <mxGeometry relative="1" as="geometry">
            <Array as="points">
              <mxPoint x="540" y="-661" />
              <mxPoint x="540" y="-924" />
            </Array>
          </mxGeometry>
        </mxCell>
        <mxCell id="sXkvkpvaLC4nvtnSclr9-113" value="&lt;span style=&quot;font-size: 18px;&quot;&gt;M&lt;/span&gt;" style="text;html=1;align=center;verticalAlign=middle;whiteSpace=wrap;rounded=0;" parent="1" vertex="1">
          <mxGeometry x="550" y="-960" width="60" height="30" as="geometry" />
        </mxCell>
        <mxCell id="sXkvkpvaLC4nvtnSclr9-114" style="edgeStyle=orthogonalEdgeStyle;rounded=0;orthogonalLoop=1;jettySize=auto;html=1;entryX=1;entryY=0.5;entryDx=0;entryDy=0;" parent="1" source="sXkvkpvaLC4nvtnSclr9-20" target="sXkvkpvaLC4nvtnSclr9-111" edge="1">
          <mxGeometry relative="1" as="geometry">
            <Array as="points">
              <mxPoint x="790" y="-521" />
              <mxPoint x="790" y="-896" />
            </Array>
          </mxGeometry>
        </mxCell>
        <mxCell id="sXkvkpvaLC4nvtnSclr9-115" value="&lt;span style=&quot;font-size: 18px;&quot;&gt;M&lt;/span&gt;" style="text;html=1;align=center;verticalAlign=middle;whiteSpace=wrap;rounded=0;" parent="1" vertex="1">
          <mxGeometry x="750" y="-930" width="60" height="30" as="geometry" />
        </mxCell>
        <mxCell id="sXkvkpvaLC4nvtnSclr9-116" value="&lt;span style=&quot;font-size: 18px;&quot;&gt;1&lt;/span&gt;" style="text;html=1;align=center;verticalAlign=middle;whiteSpace=wrap;rounded=0;" parent="1" vertex="1">
          <mxGeometry x="670" y="-550" width="60" height="30" as="geometry" />
        </mxCell>
      </root>
    </mxGraphModel>
  </diagram>
</mxfile>
